<?xml version="1.0" encoding="UTF-8"?>
<svg id="Layer_1" data-name="Layer 1" xmlns="http://www.w3.org/2000/svg" viewBox="0 0 693.93 307.43">
  <defs>
    <style>
      .cls-1 {
        font-family: LinLibertineO, 'Linux Libertine O';
        font-size: 21px;
      }

      .cls-1, .cls-2 {
        fill: #231f20;
      }

      .cls-3 {
        fill: #f15a29;
        stroke: #be1e2d;
      }

      .cls-3, .cls-4, .cls-5, .cls-6, .cls-7, .cls-8, .cls-9, .cls-10, .cls-11 {
        stroke-miterlimit: 10;
      }

      .cls-3, .cls-4, .cls-6 {
        stroke-width: 2px;
      }

      .cls-4 {
        fill: #00aeef;
        opacity: .8;
        stroke: #2e3192;
      }

      .cls-5 {
        fill: #e6e7e8;
      }

      .cls-5, .cls-6, .cls-8 {
        stroke: #231f20;
      }

      .cls-6, .cls-7, .cls-8, .cls-9, .cls-10, .cls-11 {
        fill: none;
      }

      .cls-7 {
        stroke-dasharray: 0 0 8.7 8.7;
      }

      .cls-7, .cls-9, .cls-10, .cls-11 {
        stroke: #bcbec0;
      }

      .cls-10 {
        stroke-dasharray: 0 0 8.7 8.7;
      }

      .cls-11 {
        stroke-dasharray: 0 0 9.17 9.17;
      }
    </style>
  </defs>
  <rect class="cls-3" x="61.73" y="73.7" width="18.42" height="18.42"/>
  <rect class="cls-3" x="602.21" y="73.7" width="18.42" height="18.42"/>
  <rect class="cls-3" x="61.73" y="247.89" width="18.42" height="18.42"/>
  <rect class="cls-3" x="602.21" y="247.89" width="18.42" height="18.42"/>
  <g>
    <g>
      <line class="cls-9" x1="297.88" y1="274.52" x2="302.38" y2="274.52"/>
      <line class="cls-11" x1="311.55" y1="274.52" x2="637.17" y2="274.52"/>
      <line class="cls-9" x1="641.76" y1="274.52" x2="646.26" y2="274.52"/>
    </g>
    <g>
      <line class="cls-9" x1="297.88" y1="257.1" x2="302.38" y2="257.1"/>
      <line class="cls-11" x1="311.55" y1="257.1" x2="637.17" y2="257.1"/>
      <line class="cls-9" x1="641.76" y1="257.1" x2="646.26" y2="257.1"/>
    </g>
    <g>
      <line class="cls-9" x1="297.88" y1="239.68" x2="302.38" y2="239.68"/>
      <line class="cls-11" x1="311.55" y1="239.68" x2="637.17" y2="239.68"/>
      <line class="cls-9" x1="641.76" y1="239.68" x2="646.26" y2="239.68"/>
    </g>
    <g>
      <line class="cls-9" x1="297.88" y1="222.26" x2="302.38" y2="222.26"/>
      <line class="cls-11" x1="311.55" y1="222.26" x2="637.17" y2="222.26"/>
      <line class="cls-9" x1="641.76" y1="222.26" x2="646.26" y2="222.26"/>
    </g>
    <g>
      <line class="cls-9" x1="297.88" y1="204.85" x2="302.38" y2="204.85"/>
      <line class="cls-11" x1="311.55" y1="204.85" x2="637.17" y2="204.85"/>
      <line class="cls-9" x1="641.76" y1="204.85" x2="646.26" y2="204.85"/>
    </g>
    <g>
      <line class="cls-9" x1="297.88" y1="187.43" x2="302.38" y2="187.43"/>
      <line class="cls-11" x1="311.55" y1="187.43" x2="637.17" y2="187.43"/>
      <line class="cls-9" x1="641.76" y1="187.43" x2="646.26" y2="187.43"/>
    </g>
    <g>
      <line class="cls-9" x1="297.88" y1="170.01" x2="302.38" y2="170.01"/>
      <line class="cls-11" x1="311.55" y1="170.01" x2="637.17" y2="170.01"/>
      <line class="cls-9" x1="641.76" y1="170.01" x2="646.26" y2="170.01"/>
    </g>
    <g>
      <line class="cls-9" x1="297.88" y1="152.59" x2="302.38" y2="152.59"/>
      <line class="cls-11" x1="311.55" y1="152.59" x2="637.17" y2="152.59"/>
      <line class="cls-9" x1="641.76" y1="152.59" x2="646.26" y2="152.59"/>
    </g>
    <g>
      <line class="cls-9" x1="297.88" y1="135.17" x2="302.38" y2="135.17"/>
      <line class="cls-11" x1="311.55" y1="135.17" x2="637.17" y2="135.17"/>
      <line class="cls-9" x1="641.76" y1="135.17" x2="646.26" y2="135.17"/>
    </g>
    <g>
      <line class="cls-9" x1="297.88" y1="117.75" x2="302.38" y2="117.75"/>
      <line class="cls-11" x1="311.55" y1="117.75" x2="637.17" y2="117.75"/>
      <line class="cls-9" x1="641.76" y1="117.75" x2="646.26" y2="117.75"/>
    </g>
    <g>
      <line class="cls-9" x1="297.88" y1="100.33" x2="302.38" y2="100.33"/>
      <line class="cls-11" x1="311.55" y1="100.33" x2="637.17" y2="100.33"/>
      <line class="cls-9" x1="641.76" y1="100.33" x2="646.26" y2="100.33"/>
    </g>
    <g>
      <line class="cls-9" x1="297.88" y1="82.91" x2="302.38" y2="82.91"/>
      <line class="cls-11" x1="311.55" y1="82.91" x2="637.17" y2="82.91"/>
      <line class="cls-9" x1="641.76" y1="82.91" x2="646.26" y2="82.91"/>
    </g>
    <g>
      <line class="cls-9" x1="297.88" y1="65.5" x2="302.38" y2="65.5"/>
      <line class="cls-11" x1="311.55" y1="65.5" x2="637.17" y2="65.5"/>
      <line class="cls-9" x1="641.76" y1="65.5" x2="646.26" y2="65.5"/>
    </g>
    <g>
      <line class="cls-9" x1="297.88" y1="48.08" x2="297.88" y2="52.58"/>
      <line class="cls-7" x1="297.88" y1="61.28" x2="297.88" y2="283.09"/>
      <line class="cls-9" x1="297.88" y1="287.44" x2="297.88" y2="291.94"/>
    </g>
    <g>
      <line class="cls-9" x1="628.84" y1="48.08" x2="628.84" y2="52.58"/>
      <line class="cls-7" x1="628.84" y1="61.28" x2="628.84" y2="283.09"/>
      <line class="cls-9" x1="628.84" y1="287.44" x2="628.84" y2="291.94"/>
    </g>
    <g>
      <line class="cls-9" x1="611.42" y1="48.08" x2="611.42" y2="52.58"/>
      <line class="cls-7" x1="611.42" y1="61.28" x2="611.42" y2="283.09"/>
      <line class="cls-9" x1="611.42" y1="287.44" x2="611.42" y2="291.94"/>
    </g>
    <g>
      <line class="cls-9" x1="594" y1="48.08" x2="594" y2="52.58"/>
      <line class="cls-7" x1="594" y1="61.28" x2="594" y2="283.09"/>
      <line class="cls-9" x1="594" y1="287.44" x2="594" y2="291.94"/>
    </g>
    <g>
      <line class="cls-9" x1="576.58" y1="48.08" x2="576.58" y2="52.58"/>
      <line class="cls-7" x1="576.58" y1="61.28" x2="576.58" y2="283.09"/>
      <line class="cls-9" x1="576.58" y1="287.44" x2="576.58" y2="291.94"/>
    </g>
    <g>
      <line class="cls-9" x1="559.16" y1="48.08" x2="559.16" y2="52.58"/>
      <line class="cls-7" x1="559.16" y1="61.28" x2="559.16" y2="283.09"/>
      <line class="cls-9" x1="559.16" y1="287.44" x2="559.16" y2="291.94"/>
    </g>
    <g>
      <line class="cls-9" x1="541.74" y1="48.08" x2="541.74" y2="52.58"/>
      <line class="cls-7" x1="541.74" y1="61.28" x2="541.74" y2="283.09"/>
      <line class="cls-9" x1="541.74" y1="287.44" x2="541.74" y2="291.94"/>
    </g>
    <g>
      <line class="cls-9" x1="524.33" y1="48.08" x2="524.33" y2="52.58"/>
      <line class="cls-7" x1="524.33" y1="61.28" x2="524.33" y2="283.09"/>
      <line class="cls-9" x1="524.33" y1="287.44" x2="524.33" y2="291.94"/>
    </g>
    <g>
      <line class="cls-9" x1="506.91" y1="48.08" x2="506.91" y2="52.58"/>
      <line class="cls-7" x1="506.91" y1="61.28" x2="506.91" y2="283.09"/>
      <line class="cls-9" x1="506.91" y1="287.44" x2="506.91" y2="291.94"/>
    </g>
    <g>
      <line class="cls-9" x1="489.49" y1="48.08" x2="489.49" y2="52.58"/>
      <line class="cls-7" x1="489.49" y1="61.28" x2="489.49" y2="283.09"/>
      <line class="cls-9" x1="489.49" y1="287.44" x2="489.49" y2="291.94"/>
    </g>
    <g>
      <line class="cls-9" x1="472.07" y1="48.08" x2="472.07" y2="52.58"/>
      <line class="cls-7" x1="472.07" y1="61.28" x2="472.07" y2="283.09"/>
      <line class="cls-9" x1="472.07" y1="287.44" x2="472.07" y2="291.94"/>
    </g>
    <g>
      <line class="cls-9" x1="454.65" y1="48.08" x2="454.65" y2="52.58"/>
      <line class="cls-7" x1="454.65" y1="61.28" x2="454.65" y2="283.09"/>
      <line class="cls-9" x1="454.65" y1="287.44" x2="454.65" y2="291.94"/>
    </g>
    <g>
      <line class="cls-9" x1="437.23" y1="48.08" x2="437.23" y2="52.58"/>
      <line class="cls-7" x1="437.23" y1="61.28" x2="437.23" y2="283.09"/>
      <line class="cls-9" x1="437.23" y1="287.44" x2="437.23" y2="291.94"/>
    </g>
    <g>
      <line class="cls-9" x1="419.81" y1="48.08" x2="419.81" y2="52.58"/>
      <line class="cls-7" x1="419.81" y1="61.28" x2="419.81" y2="283.09"/>
      <line class="cls-9" x1="419.81" y1="287.44" x2="419.81" y2="291.94"/>
    </g>
    <g>
      <line class="cls-9" x1="402.39" y1="48.08" x2="402.39" y2="52.58"/>
      <line class="cls-7" x1="402.39" y1="61.28" x2="402.39" y2="283.09"/>
      <line class="cls-9" x1="402.39" y1="287.44" x2="402.39" y2="291.94"/>
    </g>
    <g>
      <line class="cls-9" x1="384.98" y1="48.08" x2="384.98" y2="52.58"/>
      <line class="cls-7" x1="384.98" y1="61.28" x2="384.98" y2="283.09"/>
      <line class="cls-9" x1="384.98" y1="287.44" x2="384.98" y2="291.94"/>
    </g>
    <g>
      <line class="cls-9" x1="367.56" y1="48.08" x2="367.56" y2="52.58"/>
      <line class="cls-7" x1="367.56" y1="61.28" x2="367.56" y2="283.09"/>
      <line class="cls-9" x1="367.56" y1="287.44" x2="367.56" y2="291.94"/>
    </g>
    <g>
      <line class="cls-9" x1="350.14" y1="48.08" x2="350.14" y2="52.58"/>
      <line class="cls-7" x1="350.14" y1="61.28" x2="350.14" y2="283.09"/>
      <line class="cls-9" x1="350.14" y1="287.44" x2="350.14" y2="291.94"/>
    </g>
    <g>
      <line class="cls-9" x1="332.72" y1="48.08" x2="332.72" y2="52.58"/>
      <line class="cls-7" x1="332.72" y1="61.28" x2="332.72" y2="283.09"/>
      <line class="cls-9" x1="332.72" y1="287.44" x2="332.72" y2="291.94"/>
    </g>
    <g>
      <line class="cls-9" x1="315.3" y1="48.08" x2="315.3" y2="52.58"/>
      <line class="cls-7" x1="315.3" y1="61.28" x2="315.3" y2="283.09"/>
      <line class="cls-9" x1="315.3" y1="287.44" x2="315.3" y2="291.94"/>
    </g>
    <g>
      <line class="cls-9" x1="36.6" y1="274.52" x2="41.1" y2="274.52"/>
      <line class="cls-10" x1="49.8" y1="274.52" x2="289.03" y2="274.52"/>
      <line class="cls-9" x1="293.38" y1="274.52" x2="297.88" y2="274.52"/>
    </g>
    <g>
      <line class="cls-9" x1="36.6" y1="257.1" x2="41.1" y2="257.1"/>
      <line class="cls-10" x1="49.8" y1="257.1" x2="289.03" y2="257.1"/>
      <line class="cls-9" x1="293.38" y1="257.1" x2="297.88" y2="257.1"/>
    </g>
    <g>
      <line class="cls-9" x1="36.6" y1="239.68" x2="41.1" y2="239.68"/>
      <line class="cls-10" x1="49.8" y1="239.68" x2="289.03" y2="239.68"/>
      <line class="cls-9" x1="293.38" y1="239.68" x2="297.88" y2="239.68"/>
    </g>
    <g>
      <line class="cls-9" x1="36.6" y1="222.26" x2="41.1" y2="222.26"/>
      <line class="cls-10" x1="49.8" y1="222.26" x2="289.03" y2="222.26"/>
      <line class="cls-9" x1="293.38" y1="222.26" x2="297.88" y2="222.26"/>
    </g>
    <g>
      <line class="cls-9" x1="36.6" y1="204.85" x2="41.1" y2="204.85"/>
      <line class="cls-10" x1="49.8" y1="204.85" x2="289.03" y2="204.85"/>
      <line class="cls-9" x1="293.38" y1="204.85" x2="297.88" y2="204.85"/>
    </g>
    <g>
      <line class="cls-9" x1="36.6" y1="187.43" x2="41.1" y2="187.43"/>
      <line class="cls-10" x1="49.8" y1="187.43" x2="289.03" y2="187.43"/>
      <line class="cls-9" x1="293.38" y1="187.43" x2="297.88" y2="187.43"/>
    </g>
    <g>
      <line class="cls-9" x1="36.6" y1="170.01" x2="41.1" y2="170.01"/>
      <line class="cls-10" x1="49.8" y1="170.01" x2="289.03" y2="170.01"/>
      <line class="cls-9" x1="293.38" y1="170.01" x2="297.88" y2="170.01"/>
    </g>
    <g>
      <line class="cls-9" x1="36.6" y1="152.59" x2="41.1" y2="152.59"/>
      <line class="cls-10" x1="49.8" y1="152.59" x2="289.03" y2="152.59"/>
      <line class="cls-9" x1="293.38" y1="152.59" x2="297.88" y2="152.59"/>
    </g>
    <g>
      <line class="cls-9" x1="36.6" y1="135.17" x2="41.1" y2="135.17"/>
      <line class="cls-10" x1="49.8" y1="135.17" x2="289.03" y2="135.17"/>
      <line class="cls-9" x1="293.38" y1="135.17" x2="297.88" y2="135.17"/>
    </g>
    <g>
      <line class="cls-9" x1="36.6" y1="117.75" x2="41.1" y2="117.75"/>
      <line class="cls-10" x1="49.8" y1="117.75" x2="289.03" y2="117.75"/>
      <line class="cls-9" x1="293.38" y1="117.75" x2="297.88" y2="117.75"/>
    </g>
    <g>
      <line class="cls-9" x1="36.6" y1="100.33" x2="41.1" y2="100.33"/>
      <line class="cls-10" x1="49.8" y1="100.33" x2="289.03" y2="100.33"/>
      <line class="cls-9" x1="293.38" y1="100.33" x2="297.88" y2="100.33"/>
    </g>
    <g>
      <line class="cls-9" x1="36.6" y1="82.91" x2="41.1" y2="82.91"/>
      <line class="cls-10" x1="49.8" y1="82.91" x2="289.03" y2="82.91"/>
      <line class="cls-9" x1="293.38" y1="82.91" x2="297.88" y2="82.91"/>
    </g>
    <g>
      <line class="cls-9" x1="36.6" y1="65.5" x2="41.1" y2="65.5"/>
      <line class="cls-10" x1="49.8" y1="65.5" x2="289.03" y2="65.5"/>
      <line class="cls-9" x1="293.38" y1="65.5" x2="297.88" y2="65.5"/>
    </g>
    <g>
      <line class="cls-9" x1="280.46" y1="48.08" x2="280.46" y2="52.58"/>
      <line class="cls-7" x1="280.46" y1="61.28" x2="280.46" y2="283.09"/>
      <line class="cls-9" x1="280.46" y1="287.44" x2="280.46" y2="291.94"/>
    </g>
    <g>
      <line class="cls-9" x1="263.04" y1="48.08" x2="263.04" y2="52.58"/>
      <line class="cls-7" x1="263.04" y1="61.28" x2="263.04" y2="283.09"/>
      <line class="cls-9" x1="263.04" y1="287.44" x2="263.04" y2="291.94"/>
    </g>
    <g>
      <line class="cls-9" x1="245.63" y1="48.08" x2="245.63" y2="52.58"/>
      <line class="cls-7" x1="245.63" y1="61.28" x2="245.63" y2="283.09"/>
      <line class="cls-9" x1="245.63" y1="287.44" x2="245.63" y2="291.94"/>
    </g>
    <g>
      <line class="cls-9" x1="228.21" y1="48.08" x2="228.21" y2="52.58"/>
      <line class="cls-7" x1="228.21" y1="61.28" x2="228.21" y2="283.09"/>
      <line class="cls-9" x1="228.21" y1="287.44" x2="228.21" y2="291.94"/>
    </g>
    <g>
      <line class="cls-9" x1="210.79" y1="48.08" x2="210.79" y2="52.58"/>
      <line class="cls-7" x1="210.79" y1="61.28" x2="210.79" y2="283.09"/>
      <line class="cls-9" x1="210.79" y1="287.44" x2="210.79" y2="291.94"/>
    </g>
    <g>
      <line class="cls-9" x1="193.37" y1="48.08" x2="193.37" y2="52.58"/>
      <line class="cls-7" x1="193.37" y1="61.28" x2="193.37" y2="283.09"/>
      <line class="cls-9" x1="193.37" y1="287.44" x2="193.37" y2="291.94"/>
    </g>
    <g>
      <line class="cls-9" x1="175.95" y1="48.08" x2="175.95" y2="52.58"/>
      <line class="cls-7" x1="175.95" y1="61.28" x2="175.95" y2="283.09"/>
      <line class="cls-9" x1="175.95" y1="287.44" x2="175.95" y2="291.94"/>
    </g>
    <g>
      <line class="cls-9" x1="158.53" y1="48.08" x2="158.53" y2="52.58"/>
      <line class="cls-7" x1="158.53" y1="61.28" x2="158.53" y2="283.09"/>
      <line class="cls-9" x1="158.53" y1="287.44" x2="158.53" y2="291.94"/>
    </g>
    <g>
      <line class="cls-9" x1="141.11" y1="48.08" x2="141.11" y2="52.58"/>
      <line class="cls-7" x1="141.11" y1="61.28" x2="141.11" y2="283.09"/>
      <line class="cls-9" x1="141.11" y1="287.44" x2="141.11" y2="291.94"/>
    </g>
    <g>
      <line class="cls-9" x1="123.7" y1="48.08" x2="123.7" y2="52.58"/>
      <line class="cls-7" x1="123.7" y1="61.28" x2="123.7" y2="283.09"/>
      <line class="cls-9" x1="123.7" y1="287.44" x2="123.7" y2="291.94"/>
    </g>
    <g>
      <line class="cls-9" x1="106.28" y1="48.08" x2="106.28" y2="52.58"/>
      <line class="cls-7" x1="106.28" y1="61.28" x2="106.28" y2="283.09"/>
      <line class="cls-9" x1="106.28" y1="287.44" x2="106.28" y2="291.94"/>
    </g>
    <g>
      <line class="cls-9" x1="88.86" y1="48.08" x2="88.86" y2="52.58"/>
      <line class="cls-7" x1="88.86" y1="61.28" x2="88.86" y2="283.09"/>
      <line class="cls-9" x1="88.86" y1="287.44" x2="88.86" y2="291.94"/>
    </g>
    <g>
      <line class="cls-9" x1="71.44" y1="48.08" x2="71.44" y2="52.58"/>
      <line class="cls-7" x1="71.44" y1="61.28" x2="71.44" y2="283.09"/>
      <line class="cls-9" x1="71.44" y1="287.44" x2="71.44" y2="291.94"/>
    </g>
    <g>
      <line class="cls-9" x1="54.02" y1="48.08" x2="54.02" y2="52.58"/>
      <line class="cls-7" x1="54.02" y1="61.28" x2="54.02" y2="283.09"/>
      <line class="cls-9" x1="54.02" y1="287.44" x2="54.02" y2="291.94"/>
    </g>
    <g>
      <line class="cls-9" x1="297.88" y1="48.08" x2="297.88" y2="52.58"/>
      <line class="cls-7" x1="297.88" y1="61.28" x2="297.88" y2="283.09"/>
      <line class="cls-9" x1="297.88" y1="287.44" x2="297.88" y2="291.94"/>
    </g>
  </g>
  <rect class="cls-8" x="36.6" y="48.08" width="609.65" height="243.86"/>
  <rect class="cls-4" x="324.5" y="143.38" width="18.42" height="18.42"/>
  <rect class="cls-4" x="323.51" y="108.54" width="18.42" height="18.42"/>
  <rect class="cls-4" x="166.74" y="230.47" width="18.42" height="18.42"/>
  <rect class="cls-4" x="149.32" y="87.98" width="18.42" height="18.42"/>
  <rect class="cls-4" x="393.18" y="230.47" width="18.42" height="18.42"/>
  <g>
    <line class="cls-6" x1="19.18" y1="30.66" x2="19.18" y2="74.47"/>
    <path class="cls-2" d="M19.18,82.91c-1.48-3.98-3.99-8.91-6.66-11.97l6.66,2.41,6.66-2.41c-2.67,3.06-5.18,7.99-6.66,11.97Z"/>
  </g>
  <g>
    <line class="cls-6" x1="19.18" y1="30.66" x2="62.49" y2="30.66"/>
    <path class="cls-2" d="M70.94,30.66c-3.98,1.48-8.91,3.99-11.97,6.66l2.41-6.66-2.41-6.66c3.06,2.67,7.99,5.18,11.97,6.66Z"/>
  </g>
  <text class="cls-1" transform="translate(2.64 52.27)"><tspan x="0" y="0">x</tspan></text>
  <text class="cls-1" transform="translate(31.19 17.43)"><tspan x="0" y="0">y</tspan></text>
  <g>
    <rect class="cls-5" x="545.36" y="22.87" width="132.12" height="40.69"/>
    <text class="cls-1" transform="translate(552.99 50.54)"><tspan x="0" y="0">gNB</tspan></text>
    <text class="cls-1" transform="translate(590.52 57.54) scale(.58)"><tspan x="0" y="0">1 </tspan></text>
    <text class="cls-1" transform="translate(599.27 50.54)"><tspan x="0" y="0">(0,12.83)</tspan></text>
  </g>
  <g>
    <rect class="cls-5" x="534.28" y="198.78" width="154.29" height="40.69"/>
    <text class="cls-1" transform="translate(542.44 226.45)"><tspan x="0" y="0">gNB</tspan></text>
    <text class="cls-1" transform="translate(579.97 233.45) scale(.58)"><tspan x="0" y="0">0</tspan></text>
    <text class="cls-1" transform="translate(585.66 226.45)"><tspan x="0" y="0">(3.85,12.83)</tspan></text>
  </g>
  <g>
    <rect class="cls-5" x="21.43" y="100.55" width="100.02" height="40.69"/>
    <text class="cls-1" transform="translate(29.97 128.22)"><tspan x="0" y="0">gNB</tspan></text>
    <text class="cls-1" transform="translate(67.49 135.21) scale(.58)"><tspan x="0" y="0">2 </tspan></text>
    <text class="cls-1" transform="translate(76.25 128.22)"><tspan x="0" y="0">(0,0)</tspan></text>
  </g>
  <g>
    <rect class="cls-5" x="11.15" y="198.78" width="119.57" height="40.69"/>
    <text class="cls-1" transform="translate(17.39 226.45)"><tspan x="0" y="0">gNB</tspan></text>
    <text class="cls-1" transform="translate(54.92 233.45) scale(.58)"><tspan x="0" y="0">3 </tspan></text>
    <text class="cls-1" transform="translate(63.67 226.45)"><tspan x="0" y="0">(3.85,0)</tspan></text>
  </g>
  <g>
    <rect class="cls-5" x="266.55" y="170.5" width="132.12" height="40.69"/>
    <text class="cls-1" transform="translate(272.96 198.18)"><tspan x="0" y="0">UE</tspan></text>
    <text class="cls-1" transform="translate(298.54 205.17) scale(.58)"><tspan x="0" y="0">0 </tspan></text>
    <text class="cls-1" transform="translate(307.29 198.18)"><tspan x="0" y="0">(1.80,6.07)</tspan></text>
  </g>
  <g>
    <rect class="cls-5" x="330.06" y="257.32" width="144.68" height="40.69"/>
    <text class="cls-1" transform="translate(342.75 284.99)"><tspan x="0" y="0">UE</tspan></text>
    <text class="cls-1" transform="translate(368.32 291.98) scale(.58)"><tspan x="0" y="0">5 </tspan></text>
    <text class="cls-1" transform="translate(377.08 284.99)"><tspan x="0" y="0">(3,28,7.68)</tspan></text>
  </g>
  <g>
    <rect class="cls-5" x="266.55" y="59.43" width="132.12" height="40.69"/>
    <text class="cls-1" transform="translate(272.96 87.1)"><tspan x="0" y="0">UE</tspan></text>
    <text class="cls-1" transform="translate(298.54 94.1) scale(.58)"><tspan x="0" y="0">1 </tspan></text>
    <text class="cls-1" transform="translate(307.29 87.1)"><tspan x="0" y="0">(1.00,6.07)</tspan></text>
  </g>
  <g>
    <rect class="cls-5" x="109.89" y="257.32" width="132.12" height="40.69"/>
    <text class="cls-1" transform="translate(112.58 284.99)"><tspan x="0" y="0">UE</tspan></text>
    <text class="cls-1" transform="translate(138.16 291.98) scale(.58)"><tspan x="0" y="0">3</tspan></text>
    <text class="cls-1" transform="translate(143.85 284.99)"><tspan x="0" y="0" xml:space="preserve"> (3.28, 2.97)</tspan></text>
  </g>
  <g>
    <rect class="cls-5" x="101.87" y="38.23" width="132.12" height="40.69"/>
    <text class="cls-1" transform="translate(108.29 65.91)"><tspan x="0" y="0">UE</tspan></text>
    <text class="cls-1" transform="translate(133.86 72.9) scale(.58)"><tspan x="0" y="0">4 </tspan></text>
    <text class="cls-1" transform="translate(142.62 65.91)"><tspan x="0" y="0">(0.58,2.03)</tspan></text>
  </g>
  <rect class="cls-4" x="462.86" y="143.38" width="18.42" height="18.42"/>
  <g>
    <rect class="cls-5" x="406.01" y="94.33" width="132.12" height="40.69"/>
    <text class="cls-1" transform="translate(412.42 122.01)"><tspan x="0" y="0">UE</tspan></text>
    <text class="cls-1" transform="translate(438 129) scale(.58)"><tspan x="0" y="0">2 </tspan></text>
    <text class="cls-1" transform="translate(446.75 122.01)"><tspan x="0" y="0">(1.80,9.14)</tspan></text>
  </g>
</svg>